# xmcd
#
# Track frame offsets: 
#        150
#        15781
#        29226
#        45941
#        59617
#        76228
#        92542
#        107628
#        122163
#        137596
#
# Disc length: 2025 seconds
#
# Revision: 0
# Processed by: cddbd v1.5.2PL0 Copyright (c) Steve Scherf et al.
# Submitted via: ExactAudioCopy v1.1
#
DISCID=7507e70a
DTITLE=Varios Artistas - Verano Tropical Vol.1
DYEAR=2000
DGENRE=Tropical
TTITLE0=Rafaga - Para Que Baile Mi Gente
TTITLE1=Los Sultanes - El Tucanazo
TTITLE2=Media Naraja - Algun Dia Regresaras
TTITLE3=Gilda - Fuiste
TTITLE4=Adrian Y Los Dados Negros - Pastorcita
TTITLE5=Malagata - Amigo
TTITLE6=Siete Lunas - Tu Ya No Me Quieres
TTITLE7=Riki Maravilla - Llego El Amarrete
TTITLE8=Pomada - Ni Que Estuviera Loco
TTITLE9=Karicia - Coco Loco (Remix)
EXTD=
EXTT0=
EXTT1=
EXTT2=
EXTT3=
EXTT4=
EXTT5=
EXTT6=
EXTT7=
EXTT8=
EXTT9=
PLAYORDER=
